# xmcd CD database file
#
# Track frame offsets:
#	150
#	25374
#	43451
#	65285
#	86212
#	102679
#	138280
#
# Disc length: 2221 seconds
#
# Revision: 9
# Processed by: cddbd v1.4PL0 Copyright (c) Steve Scherf et al.
# Submitted via: CDex 1.50
#
DISCID=6608ab07
DTITLE=Skalpel - Sculpture
DYEAR=2003
DGENRE=Jazz
TTITLE0=Break In
TTITLE1=Voice of Reason (feat. Yarah Bravo)
TTITLE2=Sculpture
TTITLE3=Ninjazz
TTITLE4=Tension
TTITLE5=Enviromental Sounds
TTITLE6=Sculpture (Video)
EXTD=YEAR: 2003
EXTT0=
EXTT1=
EXTT2=
EXTT3=
EXTT4=
EXTT5=
EXTT6=
PLAYORDER=
